<svg version="1.2" xmlns="http://www.w3.org/2000/svg" viewBox="0 0 771 165" width="771" height="165"><style>.a{fill:#128afa}.b{fill:#2b2b2b}</style><path class="a" d="m493.1 35.8l-0.9 2-8 16.5q-0.2 0.5 0.3 0.7l67.4 31.6 6.1 2.8 6.8 3.3q-0.2 0.2-0.3 0.3l-6.5-2.5-6.2-2.6-71-28.2q0 0-0.1 0 0 0-0.1 0 0 0 0 0.1-0.1 0-0.1 0l-67 111.5q0 0.1-0.2 0.1-0.1-0.1-0.1-0.2l61.1-113.7q0.3-0.6-0.3-0.9l-63.2-29.1-5.5-2.6-29.8-13.7q-0.2 0-0.1-0.2 0.1-0.1 0.2 0l32.6 12.9 6.1 2.4 63.7 25.3q0.5 0.2 0.8-0.3l9.2-15.1 1.1-1.8 20.5-33.5q0.1-0.1 0.2 0 0.1 0.1 0.1 0.2z"/><path class="b" d="m489.1 34.4l-1.1 1.8c-21.6-8.2-51-15.9-73.7-9.9l-6.1-2.4c6.9-3.1 17.4-3 24.8-2.4q28.9 2.3 56.1 12.9z"/><path class="b" d="m405.3 24.9l5.5 2.6c-19.3 8.2-4.8 26.5 4.6 34.4q10.6 9 21.1 14.8 0.1 0 0.2 0.1 0.1 0.1 0.1 0.2 0.1 0.1 0.1 0.3 0 0.1 0 0.2l-0.4 1q-0.1 0.1-0.2 0.2 0 0.1-0.1 0.1-0.2 0-0.3 0-0.1 0-0.2 0c-12.6-6.8-25.9-16-34.7-27.6-3.3-4.3-7.3-11.9-4.9-17.6q2.6-6.1 9.2-8.7z"/><path class="b" d="m493.1 35.8q16 6.4 30.6 15c11.6 6.9 34.6 23 34.3 38.6l-6.1-2.8c-2.5-22.4-41.5-41.6-59.7-48.8z"/><path class="b" d="m453.6 80.8l-9.3 19.3q0 0.1 0 0.1 0 0-0.1 0 0 0.1-0.1 0.1 0 0-0.1 0h-8.2q-0.1 0-0.1 0-0.1-0.1-0.1-0.1-0.1-0.1-0.1-0.2 0-0.1 0-0.1l6.3-19.4q0 0 0-0.1 0.1 0 0.1 0 0-0.1 0.1-0.1 0 0 0.1 0h11.3q0 0 0.1 0.1 0.1 0 0.1 0.1 0.1 0 0.1 0.1 0 0.1-0.1 0.2z"/><path class="a" d="m208 153.6l27.4-68.4q0-0.1 0-0.1 0 0 0.1-0.1 0 0 0 0 0.1 0 0.1 0h14.5q0.1 0 0.1 0 0.1 0.1 0.2 0.1 0 0.1 0 0.2 0 0 0 0.1l-27.4 68.4q0 0.1 0 0.1-0.1 0-0.1 0 0 0.1-0.1 0.1 0 0-0.1 0h-14.4q-0.1 0-0.2 0-0.1-0.1-0.1-0.1 0-0.1-0.1-0.2 0-0.1 0.1-0.1z"/><path fill-rule="evenodd" class="b" d="m564.5 93q0.1-0.1 0.3-0.3l2.9-7.3q0-0.1 0.1-0.2 0.1-0.1 0.1-0.1 0.1-0.1 0.2-0.1 0.1 0 0.2 0h13.4q0.1 0 0.1 0 0.1 0.1 0.2 0.1 0 0.1 0 0.2 0 0.1 0 0.1l-6 15.1q-0.1 0-0.1 0.1 0 0.1 0.1 0.2 0 0 0.1 0.1 0.1 0 0.1 0 13.9 0 27.8 0.3c11.7 0.3 8.2 9.6 5.2 17.1q-4.1 10.1-8.1 20.2c-4.2 10.4-9.6 15.4-21.1 15.4q-19.7 0.1-39.2 0.1-0.5 0-0.3-0.5l23.9-59.8q0.1-0.2 0.1-0.4-0.1-0.2 0-0.3zm6 21l-10.8 27q-0.1 0.4 0.3 0.4 8.2 0.1 16.5 0.1c5.3 0 9-1.2 11-6.3q2.9-7.3 5.7-14.5 1.1-2.5 1.2-4.8 0.1-0.4-0.1-0.9-0.2-0.4-0.5-0.7-0.3-0.4-0.7-0.6-0.4-0.2-0.9-0.2h-20.9q-0.6 0-0.8 0.5z"/><path class="b" d="m606.7 153.6l27.4-68.4q0-0.1 0-0.1 0.1 0 0.1-0.1 0 0 0.1 0 0 0 0.1 0h14.5q0.1 0 0.1 0 0.1 0 0.1 0.1 0.1 0.1 0.1 0.1 0 0.1 0 0.2l-27.4 68.4q0 0.1-0.1 0.1 0 0 0 0-0.1 0.1-0.1 0.1-0.1 0-0.1 0h-14.5q-0.1 0-0.2 0 0-0.1-0.1-0.1 0-0.1 0-0.2 0 0 0-0.1z"/><path class="a" d="m38.7 97.5h-14q-0.1 0-0.2 0-0.1-0.1-0.1-0.1-0.1-0.1-0.1-0.2 0-0.1 0.1-0.2l3.9-9.7q0-0.1 0-0.1 0.1-0.1 0.1-0.1 0 0 0.1 0 0-0.1 0.1-0.1h13.9q0.1 0 0.2 0.1 0.1 0 0.1 0.1 0.1 0.1 0.1 0.2 0 0 0 0.1l-3.9 9.8q0 0-0.1 0.1 0 0 0 0.1-0.1 0-0.1 0-0.1 0-0.1 0z"/><path class="a" d="m282.5 101.7h12.9q0.6 0 0.4 0.5l-4.7 11.6q-0.1 0.4-0.7 0.4h-12.9q-0.6 0-0.8 0.6l-9.5 23.9q-0.6 1.4 0.8 2.4 0.7 0.5 2.3 0.5 4.2-0.1 8.5 0 0.5 0 0.3 0.5l-4.5 11.4q0 0.1-0.1 0.1 0 0.1-0.1 0.2-0.1 0-0.2 0-0.1 0.1-0.2 0.1-8.3 0.4-16.7-0.2c-10.5-0.8-7.9-8.2-5.2-15q4.8-12.1 9.6-23.8 0.3-0.6-0.4-0.6l-11-0.1q-0.5 0-0.3-0.4l4.6-11.6q0.2-0.5 0.7-0.5h11.2q0.5 0 0.6-0.4l5.6-13.8q0-0.1 0.1-0.2 0-0.1 0.1-0.1 0.1-0.1 0.2-0.1 0.1-0.1 0.2-0.1l13.9 0.1q0.1 0 0.2 0 0.1 0.1 0.2 0.1 0 0.1 0 0.2 0 0.2 0 0.3l-5.5 13.5q0 0.1 0 0.2 0 0.1 0.1 0.2 0 0 0.1 0.1 0.1 0 0.2 0z"/><path class="a" d="m360.7 97.5h-14q-0.1 0-0.2 0-0.1-0.1-0.1-0.1-0.1-0.1-0.1-0.2 0-0.1 0.1-0.2l3.9-9.7q0-0.1 0-0.1 0.1-0.1 0.1-0.1 0 0 0.1 0 0-0.1 0.1-0.1h13.9q0.1 0 0.2 0.1 0.1 0 0.1 0.1 0.1 0.1 0.1 0.1 0 0.1 0 0.2l-3.9 9.8q0 0-0.1 0.1 0 0 0 0-0.1 0.1-0.1 0.1-0.1 0-0.1 0z"/><path class="b" d="m551.8 87.9l6.2 2.5-1.1 4q-0.5 1.4-1.9 1.4h-6.5q-1.5 0-0.4-1 2.8-2.4 3.7-6.9z"/><path class="a" d="m1.7 153.6l20.9-52.1q0 0 0 0 0-0.1 0.1-0.1 0 0 0.1 0 0-0.1 0-0.1h14.1q0.1 0 0.1 0.1 0.1 0 0.1 0.1 0.1 0 0.1 0.1 0 0.1 0 0.2l-20.9 52q0 0.1 0 0.1 0 0-0.1 0 0 0.1-0.1 0.1 0 0-0.1 0h-14q-0.1 0-0.1 0-0.1-0.1-0.2-0.1 0-0.1 0-0.2 0-0.1 0-0.1z"/><path class="a" d="m50.7 141.3q0.1 0 0.1 0 0 0 0.1 0.1 0 0 0.1 0 0 0 0.1 0l27.9 0.1q0.5 0 0.3 0.5l-4.5 11.4q-0.3 0.6-0.9 0.6-15.1 0-30.4 0c-10.8 0-13.5-4.5-9.6-14.5q4.4-11.4 9-22.7c4.3-10.6 9.7-15.3 21.6-15.4q15.1-0.1 30.5-0.1 0.1 0 0.2 0.1 0.1 0 0.1 0.1 0.1 0.1 0.1 0.2 0 0.1 0 0.2l-4.6 11.3q-0.2 0.8-1 0.7-12.6 0-25.3 0.1-5.6 0.1-7.9 5.4-3.8 9.3-7.2 18.6-0.8 2.1 1.3 3.3z"/><path fill-rule="evenodd" class="a" d="m105.1 134.1q-1.3 2.4-1.6 5.1-0.1 0.2 0 0.5 0.1 0.2 0.2 0.5 0.1 0.2 0.3 0.3 0.3 0.2 0.5 0.3 2.4 0.7 5.3 0.7 15-0.1 30.1 0 0.5 0 0.3 0.5l-4.6 11.5q0 0.1-0.1 0.2-0.1 0.1-0.2 0.1-0.1 0.1-0.2 0.2-0.1 0-0.3 0-15.9 0-32 0c-11.7 0-17.9-4.2-12.9-16.8q6-15.2 8.8-21.7c3.5-7.8 10.2-14.1 19.6-14.1q11-0.1 22 0c12.7 0 13 6.3 9 16.1q-3.3 7.8-6.3 15.7 0 0.1-0.1 0.1 0 0.1-0.1 0.1-0.1 0.1-0.2 0.1 0 0-0.1 0h-36.5q-0.6 0-0.9 0.6zm5.5-13.9q-1 2.1 1.2 2.1h18.6q2.2 0 2.9-2.2l1.1-3.5q0.1-0.5 0.1-0.9-0.1-0.5-0.4-0.9-0.3-0.4-0.7-0.6-0.5-0.2-0.9-0.2h-16.1q-0.7 0-1.3 0.1-0.6 0.2-1.1 0.6-0.6 0.3-1 0.8-0.4 0.5-0.7 1z"/><path fill-rule="evenodd" class="a" d="m195.2 118.2l0.4-2.2q0.1-0.4 0-0.8-0.1-0.3-0.4-0.6-0.2-0.3-0.5-0.5-0.4-0.1-0.8-0.1l-31.9-0.1q-0.1 0-0.2 0 0-0.1-0.1-0.1 0-0.1 0-0.2 0-0.1 0-0.1l4.6-11.5q0.2-0.6 0.9-0.6 15.3-0.1 30.6 0c13.3 0.1 17.7 3.3 12.2 17.1q-7.1 17.6-14.1 35.1-0.1 0.4-0.5 0.4-18.5 0-37.1-0.1c-14.5 0-9.5-10.3-6.2-18.4q2.5-6.2 4.4-8.6 5.6-7.3 16-7.2 11.1 0.1 20.8 0.1 1.6 0 1.9-1.6zm-28.9 16.1l-1.6 4q-1.3 3.1 2.1 3.1l19.4 0.1q0.6 0 0.7-0.5l3.8-9.4q0-0.1 0-0.2 0 0 0-0.1-0.1-0.1-0.2-0.1-0.1-0.1-0.1-0.1h-19.4q-3.5 0.1-4.7 3.2z"/><path class="a" d="m313.9 118.9c-4.9 11.5-9.4 23.2-14 34.8q0 0.1-0.1 0.1 0 0.1-0.1 0.1 0 0.1-0.1 0.1-0.1 0-0.1 0h-14.3q-0.5 0-0.3-0.5 7.6-19.2 15.4-38.3c2.9-7.2 8.9-13.7 17.8-13.8q7.7-0.1 15.9 0 0.1 0 0.2 0 0.1 0.1 0.1 0.2 0.1 0 0.1 0.2 0 0.1 0 0.2l-4.5 11.3q-0.3 0.5-0.8 0.6c-5.6 0.2-12.4-1.5-15.2 5z"/><path class="a" d="m323.7 153.6l20.9-52.1q0 0 0 0 0-0.1 0.1-0.1 0 0 0.1 0 0-0.1 0.1-0.1h14q0.1 0 0.1 0.1 0.1 0 0.1 0.1 0.1 0 0.1 0.1 0 0.1 0 0.2l-20.9 52q0 0.1 0 0.1 0 0-0.1 0 0 0.1-0.1 0.1 0 0 0 0h-14.1q-0.1 0-0.1 0-0.1-0.1-0.2-0.1 0-0.1 0-0.2 0-0.1 0-0.1z"/><path fill-rule="evenodd" class="a" d="m398.6 119.8q1.9 0 2-1.9l0.1-2.1q0.1-1.8-1.8-1.8l-31.7-0.1q-0.1 0-0.2 0 0-0.1-0.1-0.1 0-0.1 0-0.1 0-0.1 0-0.2l4.8-11.9q0 0 0-0.1 0.1 0 0.1-0.1 0.1 0 0.1 0 0.1 0 0.1 0 16.5-0.1 33-0.1c14.4 0 14.3 7.5 9.9 18.3q-6.8 16.9-13.7 33.9-0.2 0.5-0.7 0.5-18.2 0-36.2 0.1c-6.2 0-13.1-2.6-10.1-10.4 4.4-12 7.7-24.1 23.5-24q11.2 0.1 20.9 0.1zm-25.5 21.6q9.2 0.1 18.4 0 0.5 0 0.7-0.4l3.8-9.5q0-0.1 0-0.1 0-0.1 0-0.2-0.1 0-0.1 0-0.1-0.1-0.1-0.1-10-0.1-20 0.4c-4.1 0.2-5.4 4.8-6.2 8.3q-0.1 0.2 0 0.3 0 0.2 0 0.3 0.1 0.1 0.2 0.2 0.1 0.1 0.2 0.2 1.2 0.5 3.1 0.6z"/><path class="b" d="m464.5 117.3l-0.4 0.8q-1.4 3.1 2 3.1 10.2 0.1 20.6 0.3c7.2 0.2 8.4 4.6 6.1 10.5-5.3 13.4-8.3 21.9-25.1 22q-15.7 0-31.4 0 0 0-0.1 0-0.1-0.1-0.1-0.2-0.1 0-0.1-0.1 0-0.1 0-0.2l4.7-11.7q0.2-0.4 0.6-0.4h29.6q3 0 4.2-2.8l0.3-0.8q1.5-3.6-2.3-3.7-10.3-0.5-17.3-0.5c-9.4-0.1-9.2-8-5.4-14.1q4.5-7.1 8.9-14.2c2.2-3.5 9.5-4 13.2-4q14.6 0 29.6 0 0.8 0 0.5 0.8l-4.6 11.3q-0.2 0.6-0.8 0.6h-27.5q-3.7 0-5.2 3.3z"/><path fill-rule="evenodd" class="b" d="m693.1 142.3c-3.1 7-11.1 11.3-18.6 11.4q-12.6 0.4-25.3 0.3c-11.2-0.1-13.2-6.4-9.5-15.8q4.3-11.2 9.1-22.3 6.4-14.7 22.7-14.7 10.8 0 21.6 0.1c9.4 0.1 14.3 4.6 10.7 14.2q-6.8 18-10.7 26.8zm-36.4-10.3c-1.1 2.7-3.7 9 1.1 9.2q7.9 0.4 15.9 0.1 5.2-0.2 7.2-5.1 4.6-11 6.8-16.7 1.7-4.7-2.7-5.3-4.4-0.7-15.7 0.1-5.1 0.3-7.1 4.7-2 4.6-5.5 13.1z"/><path fill-rule="evenodd" class="b" d="m738.3 143.4q-10.9 0.1-23-0.1c-8-0.1-11.7-3.5-8.7-11.5q3.5-9.3 7.3-18.4c4.6-11 12.3-11.8 24-11.9q16.3-0.1 32.5 0 0.8 0 0.3 0.6-0.1 0.2-0.3 0.7-8.6 21.5-17.3 42.9c-5.7 13.9-10.2 18.2-25 18.3q-16.2 0.1-32.5 0 0 0-0.1 0 0 0 0-0.1-0.1 0-0.1-0.1 0 0 0.1-0.1l4.6-11.6q0-0.1 0.1-0.2 0.1 0 0.1-0.1 0.1-0.1 0.2-0.1 0.1 0 0.2 0l33.4-0.1q0.5 0 0.8-0.1 0.4-0.1 0.8-0.3 0.3-0.3 0.6-0.6 0.3-0.3 0.5-0.6l2.4-5.2q0.6-1.4-0.9-1.4zm-15.5-16.7q-1.6 4.1 2.3 4.6 0 0 0 0 9.4 0.3 18.9 0.1 0.1 0 0.2-0.1 0.1 0 0.2 0 0.1-0.1 0.1-0.2 0.1-0.1 0.1-0.2l6.6-16.4q0.1-0.1 0-0.2 0 0 0-0.1-0.1-0.1-0.1-0.1-0.1-0.1-0.2-0.1-8.7 0-17.6-0.1c-7 0-8.5 7.7-10.5 12.8z"/></svg>