<?xml version="1.0" encoding="UTF-8" standalone="no"?>
<!-- Created with Inkscape (http://www.inkscape.org/) -->

<svg
   version="1.1"
   id="svg1"
   width="945.33331"
   height="230.66667"
   viewBox="0 0 945.33331 230.66667"
   sodipodi:docname="iceltria's blog_ba-style@nulla.top.eps"
   xmlns:inkscape="http://www.inkscape.org/namespaces/inkscape"
   xmlns:sodipodi="http://sodipodi.sourceforge.net/DTD/sodipodi-0.dtd"
   xmlns="http://www.w3.org/2000/svg"
   xmlns:svg="http://www.w3.org/2000/svg">
  <defs
     id="defs1" />
  <sodipodi:namedview
     id="namedview1"
     pagecolor="#ffffff"
     bordercolor="#000000"
     borderopacity="0.25"
     inkscape:showpageshadow="2"
     inkscape:pageopacity="0.0"
     inkscape:pagecheckerboard="0"
     inkscape:deskcolor="#d1d1d1" />
  <g
     id="g1"
     inkscape:groupmode="layer"
     inkscape:label="1">
    <path
       id="path1"
       d="m 5976.99,480.898 c -14.69,-35.699 -28.47,-71.679 -41.4,-108.089 -8.68,-24.61 -12.97,-52.688 21.71,-54.719 50.9,-2.969 101.92,-3.481 152.82,-1.488 35.47,1.289 60.27,11.718 74.68,43.398 24.11,52.891 48.91,114.488 74.61,184.879 3.09,8.711 2.5,17.109 -2.03,25.242 -11.29,20.66 -43.28,19.68 -64.88,20 -58.71,0.969 -97.11,0.899 -115.12,-0.43 -67.26,-4.89 -77.89,-54.57 -100.39,-108.793"
       style="fill:none;stroke:#949494;stroke-width:1;stroke-linecap:butt;stroke-linejoin:miter;stroke-miterlimit:10;stroke-dasharray:none;stroke-opacity:1"
       transform="matrix(0.13333333,0,0,-0.13333333,0,230.66667)" />
    <path
       id="path2"
       d="m 6891.29,576.48 2.5,2.309 c 4.1,3.832 1.52,10.699 -4.1,10.82 -47.58,0.7 -95.39,0.7 -143.28,0 -39.22,-0.507 -73.79,6.68 -96.02,-35 -20.08,-37.808 -35.39,-76.328 -45.78,-115.629 -2.81,-10.89 5.27,-21.601 16.48,-21.679 l 198.32,-1.91 c 4.38,-0.082 8.4,2.621 10,6.8 l 57.97,148.59 c 0.9,2.231 2.23,4.098 3.91,5.699"
       style="fill:none;stroke:#949494;stroke-width:1;stroke-linecap:butt;stroke-linejoin:miter;stroke-miterlimit:10;stroke-dasharray:none;stroke-opacity:1"
       transform="matrix(0.13333333,0,0,-0.13333333,0,230.66667)" />
    <path
       id="path3"
       d="m 4301.8,1371.72 -9.1,-20.51 -78.79,-163.32 c -1.72,-3.59 -0.82,-6.17 2.81,-7.89 l 671.99,-315.309 65.51,-29.57 71.17,-34.609 -3.09,-2.813 -70,26.91 -64.68,26.481 -705.43,280.2 c -3.28,1.33 -5.78,0.43 -7.58,-2.58 C 3960.12,772.191 3745.9,415.781 3531.91,59.6094 c -0.43,-0.6992 -4.53,-8.1992 -12.22,-22.5 -6.8,-12.5 -15.28,-24.0196 -25.59,-34.48831 -0.12,-0.12109 -0.19,-0.12109 -0.19,0 -0.12,0 -0.12,0.07813 -0.12,0.1875 208.2,383.99241 414.8,768.60141 619.92,1153.79141 1.68,3.01 0.9,5.2 -2.23,6.68 L 3477.5,1455 l -53.52,25.59 -291.68,134.29 c -1.09,0.51 -1.52,1.21 -1.21,2.31 0.12,0.31 0.12,0.51 0.2,0.82 0.12,0.51 0.62,0.78 1.01,0.58 l 320.59,-126.79 59.61,-24.3 634.69,-252.38 c 5,-2.03 10.62,-0.12 13.4,4.37 l 90.7,148.21 11.09,19.1 208.52,340.58 c 0.39,0.63 1.21,0.82 1.8,0.51 0.7,-0.39 0.89,-1.09 0.58,-1.8 L 4301.8,1371.72"
       style="fill:#ff5555;fill-opacity:1;fill-rule:nonzero;stroke:none"
       transform="matrix(0.13333333,0,0,-0.13333333,0,230.66667)" />
    <path
       id="path4"
       d="m 4262.38,1386.8 -11.09,-19.1 c -218.99,85.19 -500.98,153.59 -738.79,99.8 l -59.61,24.3 c 111.33,37.18 238.32,30.7 352.5,13.98 156.09,-22.89 308.52,-62.5 456.99,-118.98"
       style="fill:#2b2b2b;fill-opacity:1;fill-rule:nonzero;stroke:none"
       transform="matrix(0.13333333,0,0,-0.13333333,0,230.66667)" />
    <path
       id="path5"
       d="M 3423.98,1480.59 3477.5,1455 c -162.19,-74.88 -80.31,-221.41 9.61,-308.79 76.17,-74.22 161.29,-136.09 255.27,-185.62 3.64,-1.879 6.02,-5.391 6.41,-9.5 0.7,-6.289 -1.41,-10.192 -6.09,-11.68 -2.7,-0.82 -5.79,-0.308 -9.5,1.61 -121.99,60.89 -229.29,140.7 -321.79,239.37 -38.79,41.52 -85.2,114.1 -87.31,171.09 -2.19,59.54 45.9,108.72 99.88,129.11"
       style="fill:#2b2b2b;fill-opacity:1;fill-rule:nonzero;stroke:none"
       transform="matrix(0.13333333,0,0,-0.13333333,0,230.66667)" />
    <path
       id="path6"
       d="m 4301.8,1371.72 c 203.98,-80.31 423.2,-197.74 578.4,-371.41 42.5,-47.501 67.18,-102.611 74.02,-165.189 l -65.51,29.57 c -7.93,56.329 -32.42,107.297 -73.71,153.009 -138.09,152.61 -331.29,260.11 -522.3,333.51 l 9.1,20.51"
       style="fill:#2b2b2b;fill-opacity:1;fill-rule:nonzero;stroke:none"
       transform="matrix(0.13333333,0,0,-0.13333333,0,230.66667)" />
    <path
       id="path7"
       d="m 3915,921.41 -97.81,-193.711 c -0.71,-1.289 -2.07,-2.187 -3.6,-2.109 l -72.5,2.109 c -2.57,0 -4.37,2.61 -3.59,5.11 l 62.19,191.601 c 0.51,1.61 2.03,2.699 3.71,2.699 h 108.2 c 2.89,0 4.81,-3.129 3.4,-5.699"
       style="fill:#2b2b2b;fill-opacity:1;fill-rule:nonzero;stroke:none"
       transform="matrix(0.13333333,0,0,-0.13333333,0,230.66667)" />
    <path
       id="path8"
       d="M 1886.02,875.309 1612.5,192.191 c -0.59,-1.293 -1.8,-2.191 -3.28,-2.191 h -143.91 c -2.5,0 -4.22,2.5 -3.32,4.801 l 273.32,683.09 c 0.59,1.328 1.8,2.23 3.28,2.23 h 144.11 c 2.5,0 4.21,-2.5 3.32,-4.812"
       style="fill:#ff5555;fill-opacity:1;fill-rule:nonzero;stroke:none"
       transform="matrix(0.13333333,0,0,-0.13333333,0,230.66667)" />
    <path
       id="path9"
       d="m 5022.3,797.699 3.09,2.813 c 1.02,-0.313 1.91,-0.633 2.62,-0.821 0.7,-0.082 1.09,0.11 1.4,0.821 l 27.89,74.367 c 1.29,3.519 3.91,5.242 7.58,5.242 l 132.74,0.078 c 3.47,0 4.57,-1.609 3.28,-4.808 l -58.52,-145.7 c -2.58,-6.293 -0.39,-9.492 6.53,-9.382 92.89,1.101 186.21,0.711 279.68,-1.008 C 5546.48,717.109 5494.41,605 5473.01,547.5 5434.49,444.219 5401.09,362.5 5372.89,302.191 5319.22,187.109 5233.2,190.898 5105.9,190.199 c -104.61,-0.508 -209.49,-0.508 -314.69,0.192 -3.12,0 -5.31,3.199 -4.1,6.089 l 238.2,594.809 c 0.59,1.41 0.28,2.621 -0.9,3.59 -0.89,0.82 -1.6,1.723 -2.11,2.82 m 245.79,-390.711 c 21.52,54.102 42.42,104.922 58.39,157.813 4.54,14.687 -6.6,29.687 -21.99,29.687 l -209.29,0.633 c -3.4,0.078 -6.41,-2.031 -7.58,-5.121 L 4980.51,322.191 c -1.41,-3.402 -0.31,-5.082 3.4,-5.203 64.18,-2.109 128.39,-1.789 192.57,0.903 55.71,2.308 72.82,41.8 91.61,89.097"
       style="fill:#2b2b2b;fill-opacity:1;fill-rule:nonzero;stroke:none"
       transform="matrix(0.13333333,0,0,-0.13333333,0,230.66667)" />
    <path
       id="path10"
       d="m 5449.3,194.879 273.4,683.012 c 0.5,1.41 1.91,2.308 3.32,2.308 h 144.37 c 2.5,0 4.3,-2.578 3.32,-4.89 L 5600.2,192.301 c -0.51,-1.403 -1.92,-2.301 -3.29,-2.301 h -144.29 c -2.5,0 -4.34,2.621 -3.32,4.879"
       style="fill:#2b2b2b;fill-opacity:1;fill-rule:nonzero;stroke:none"
       transform="matrix(0.13333333,0,0,-0.13333333,0,230.66667)" />
    <path
       id="path11"
       d="m 416.09,851.09 -36.399,-91.871 c -1.101,-2.93 -3.211,-4.34 -6.293,-4.34 l -136.597,-0.188 c -4.102,0 -5.321,1.911 -3.789,5.7 l 37.297,93.398 c 1.492,3.711 4.179,5.621 8.211,5.621 l 131.871,0.078 c 6.019,0 7.929,-2.769 5.699,-8.398"
       style="fill:#ff5555;fill-opacity:1;fill-rule:nonzero;stroke:none"
       transform="matrix(0.13333333,0,0,-0.13333333,0,230.66667)" />
    <path
       id="path12"
       d="m 2208.01,712.891 126.68,-0.27 c 5.11,0 6.6,-2.422 4.72,-7.109 L 2294.1,593.59 c -1.72,-3.981 -4.69,-5.969 -8.98,-5.969 H 2157.3 c -3.71,0 -6.99,-2.312 -8.32,-5.711 l -94.29,-236.711 c -2.7,-6.679 -1.88,-15.078 2.03,-23.008 2.26,-4.492 8.4,-6.992 18.28,-7.312 31.99,-0.899 63.59,-1.09 94.88,-0.391 2.93,0 4.92,-2.886 3.83,-5.508 l -44.73,-111.359 c -1.68,-4.223 -5.7,-6.922 -10.07,-7.031 -60.71,-1.18 -162.43,-10.899 -216.53,14.41 -38.4,17.891 -19.49,85.699 -7.77,115.199 33.28,84.02 66.8,167.891 100.39,251.789 0.59,1.532 1.48,2.813 2.81,3.91 1.41,1.293 2.39,2.383 2.97,3.321 2.5,3.281 0.12,8.082 -4.06,8.082 l -111.33,0.508 c -3.67,0 -4.88,1.679 -3.48,5.203 L 1927.5,707.5 c 1.41,3.52 3.98,5.199 7.7,5.199 l 111.99,0.11 c 2.93,0 4.8,1.293 5.9,3.992 l 54.53,137.179 c 1.48,3.719 4.18,5.508 8.08,5.508 l 141.41,-0.386 c 5.27,0 6.8,-7.383 1.8,-9.411 -3.91,-1.601 -7,-5.082 -9.11,-10.39 -15.89,-39.891 -31.21,-80.199 -45.7,-120.711 -1.4,-3.789 -0.12,-5.699 3.91,-5.699"
       style="fill:#ff5555;fill-opacity:1;fill-rule:nonzero;stroke:none"
       transform="matrix(0.13333333,0,0,-0.13333333,0,230.66667)" />
    <path
       id="path13"
       d="m 2988.79,754.801 h -140.9 c -2.19,0 -3.79,2.308 -2.89,4.418 l 39.61,98.281 c 0.51,1.211 1.68,1.988 3.01,1.988 h 139.1 c 2.26,0 3.79,-2.297 2.97,-4.367 l -37.89,-98.32 c -0.51,-1.211 -1.68,-2 -3.01,-2"
       style="fill:#ff5555;fill-opacity:1;fill-rule:nonzero;stroke:none"
       transform="matrix(0.13333333,0,0,-0.13333333,0,230.66667)" />
    <path
       id="path14"
       d="m 4887.62,851.09 64.68,-26.481 -17.69,-47.808 c -1.33,-3.52 -3.83,-5.199 -7.5,-5.082 l -76.91,0.472 c -5.32,0 -5.98,1.789 -2.11,5.43 21.52,19.488 34.61,43.981 39.53,73.469"
       style="fill:#2b2b2b;fill-opacity:1;fill-rule:nonzero;stroke:none"
       transform="matrix(0.13333333,0,0,-0.13333333,0,230.66667)" />
    <path
       id="path15"
       d="M 7.30078,196.289 214.879,714.102 c 0.711,1.796 2.422,2.886 4.301,2.886 l 137.5,0.203 c 3.199,0 5.511,-3.281 4.34,-6.293 L 153.398,192.891 C 152.699,191.09 151.02,190 149.102,190 H 11.6016 c -3.28129,0 -5.51176,3.32 -4.30082,6.289"
       style="fill:#ff5555;fill-opacity:1;fill-rule:nonzero;stroke:none"
       transform="matrix(0.13333333,0,0,-0.13333333,0,230.66667)" />
    <path
       id="path16"
       d="m 484.102,323.398 c 12.808,-4.878 28.91,-7.378 48.398,-7.5 81.68,-0.386 162.891,-0.507 243.59,-0.308 4.73,0 6.211,-2.192 4.422,-6.61 L 733.711,195.512 c -1.41,-3.321 -3.91,-5 -7.5,-5.121 -103.91,-0.7 -207.621,-1.09 -311.09,-1.09 -102.93,-0.121 -126.922,52.379 -90.43,146.008 20.43,52.191 41.207,104.3 62.418,156.171 34.493,84.731 58.282,135.321 71.211,151.61 60.782,77.031 136.68,72.609 243.668,73.199 79.102,0.512 158.012,0.512 236.723,0.121 2.769,0 3.668,-1.289 2.578,-4.031 l -46.09,-114.758 c -1.918,-4.922 -5.508,-7.312 -10.789,-7.23 -83.898,0.898 -168.711,0.308 -254.41,-1.602 -35.699,-0.777 -60.512,-17.187 -74.301,-49.301 C 532.621,485.898 510.898,431.91 490.391,377.379 483.52,358.98 479.488,344.18 478.199,333.09 c -0.5,-4.18 2,-8.211 5.903,-9.692"
       style="fill:#ff5555;fill-opacity:1;fill-rule:nonzero;stroke:none"
       transform="matrix(0.13333333,0,0,-0.13333333,0,230.66667)" />
    <path
       id="path17"
       d="m 1025.9,326.801 c 13.71,-7.11 28.4,-10.59 44.22,-10.711 105.58,-0.192 211.6,-0.5 317.97,-0.891 3.82,0 5,-1.801 3.63,-5.398 L 1345.51,195 c -1.1,-2.699 -3.71,-4.488 -6.6,-4.609 -119.93,-1.289 -239.42,-0.7 -358.519,1.8 -122.301,2.61 -121.172,84.411 -87.582,173.829 23.211,61.679 51.8,131.871 85.711,210.781 27.57,64.219 70.27,106.597 128.2,127.109 25.58,9.102 71.37,13.281 137.26,12.809 50.51,-0.508 100.71,-0.508 150.82,0 110.51,0.98 133.21,-53.52 92.39,-152.617 -22.78,-55.391 -45.28,-110.313 -67.58,-164.614 -1.21,-3.008 -4.1,-4.879 -7.31,-4.879 l -365.82,-0.121 c -4.37,0 -8.39,-3.008 -9.57,-7.297 l -14.72,-51.679 c -0.98,-3.403 0.62,-7.114 3.71,-8.711 m 308.32,240.39 c 3.67,10.618 -4.02,21.719 -15.24,22.11 -54.37,1.91 -108.2,2.109 -161.48,0.39 -40.31,-1.293 -60.12,-45 -67.81,-78.211 -0.59,-2.691 0.51,-3.98 3.2,-3.98 h 215.12 c 3.79,0 6.29,1.801 7.58,5.391 l 18.63,54.3"
       style="fill:#ff5555;fill-opacity:1;fill-rule:nonzero;stroke:none"
       transform="matrix(0.13333333,0,0,-0.13333333,0,230.66667)" />
    <path
       id="path18"
       d="m 2507.62,508.398 c -41.33,-104.609 -85,-208.519 -125.71,-313.519 -1.32,-3.277 -3.82,-5 -7.3,-4.879 l -138.52,0.199 c -5,0 -6.6,2.301 -4.68,6.91 49.29,122.301 98.39,244.301 147.3,366.172 21.6,54.02 58.59,112.617 113.2,137.028 57.39,25.589 156.49,16.8 227.19,16.492 6.29,-0.082 8.28,-3.012 6.02,-8.91 L 2680.51,596.02 c -1.02,-2.739 -3.6,-4.54 -6.53,-4.61 -34.18,-1.609 -81.36,3.711 -108.78,-7.43 -35.2,-14.101 -44.18,-41.679 -57.58,-75.582"
       style="fill:#ff5555;fill-opacity:1;fill-rule:nonzero;stroke:none"
       transform="matrix(0.13333333,0,0,-0.13333333,0,230.66667)" />
    <path
       id="path19"
       d="m 2620,196.41 207.5,517.692 c 0.7,1.679 2.5,2.886 4.41,2.886 l 137.07,0.203 c 3.4,0 5.71,-3.402 4.42,-6.492 L 2766.02,193.012 c -0.71,-1.801 -2.5,-3.012 -4.42,-3.012 h -137.3 c -3.28,0 -5.59,3.398 -4.3,6.41"
       style="fill:#ff5555;fill-opacity:1;fill-rule:nonzero;stroke:none"
       transform="matrix(0.13333333,0,0,-0.13333333,0,230.66667)" />
    <path
       id="path20"
       d="m 3383.28,537.621 6.92,32.07 c 2.3,10.618 -5.79,20.618 -16.61,20.618 l -314.8,0.589 c -6.29,0 -8.2,2.891 -5.9,8.711 l 44.49,112.11 c 1.14,2.769 3.21,4.179 6.21,4.179 115.51,1.211 231.02,1.09 346.41,-0.199 123.01,-1.398 122.11,-76.719 86.6,-166.719 -46.72,-118.281 -94.41,-236.281 -142.89,-353.98 -1.33,-3.09 -3.59,-4.691 -6.99,-4.691 -121.02,-0.508 -241.52,-0.7 -361.52,-0.508 -156.1,0.32 -103.99,106.289 -66.41,194.808 42.3,99.692 94.73,151.09 208.71,147.192 36.41,-1.289 106.29,-1.02 209.69,0.82 3.32,0.078 5.43,1.68 6.09,5 M 3187.7,418.52 c -72.82,-1.532 -94.89,-8.211 -108.91,-84.418 -1.68,-9.301 5.43,-17.891 14.92,-18.012 l 202.58,-0.969 c 3.32,-0.121 5.51,1.359 6.8,4.488 l 37.3,91.871 c 1.72,4.219 0.31,6.329 -4.18,6.411 -49.92,1.519 -99.41,1.718 -148.51,0.629"
       style="fill:#ff5555;fill-opacity:1;fill-rule:nonzero;stroke:none"
       transform="matrix(0.13333333,0,0,-0.13333333,0,230.66667)" />
    <path
       id="path21"
       d="m 4401.21,703.52 -41.52,-107.739 c -1.29,-3.16 -4.38,-5.269 -7.78,-5.269 -90.11,-0.121 -178.2,-0.121 -264.53,0.187 -42.5,0.082 -66.17,-20 -71.29,-60.308 -0.5,-3.672 1.02,-6.289 4.42,-7.77 7.69,-3.32 17.58,-5 29.49,-5 64.1,0.078 128.28,-0.711 192.5,-2.23 51.21,-1.172 88.79,-22.77 71.41,-81.801 -6.8,-23.078 -24.42,-67.18 -52.89,-132.5 -31.92,-73.078 -92.31,-110.192 -181.14,-111.289 -112.18,-1.281 -224.49,-0.821 -336.79,1.488 -3.29,0.121 -4.3,1.602 -3.09,4.609 l 46.72,115.582 c 1.17,3.008 4.06,4.93 7.26,4.93 94.03,-0.512 188.52,-0.512 283.52,0.192 32.89,0.308 52.19,14.609 57.89,43.089 4.1,20.188 -5.19,30.43 -27.89,30.618 -91.91,0.711 -151.91,1.8 -179.88,3.281 -31.84,1.719 -52.82,14.422 -63.01,37.89 -26.8,62.231 60.9,184.219 93.79,235.321 29.22,45.308 105.58,50.39 154.1,50.39 95.39,-0.082 194.49,-0.203 297.38,-0.39 3.21,0 4.42,-4.18 1.6,-5.903 l -7.89,-4.609 c -1.09,-0.59 -1.87,-1.598 -2.38,-2.769"
       style="fill:#2b2b2b;fill-opacity:1;fill-rule:nonzero;stroke:none"
       transform="matrix(0.13333333,0,0,-0.13333333,0,230.66667)" />
    <path
       id="path22"
       d="m 5796.99,403.91 c 22.89,55.699 46.21,111.211 69.92,166.289 42.07,98.082 117.19,147.422 225.39,148 80.98,0.512 161.8,-1.008 242.39,-4.289 34.53,-1.41 61.79,-14.031 81.72,-37.699 28.08,-33.402 9.18,-81.09 -5.12,-118.121 -22.5,-58.211 -45.39,-116.289 -68.67,-174.18 -26.14,-64.73 -49.61,-107.89 -70.32,-129.609 -37.3,-39.18 -85.58,-60.321 -144.68,-63.211 -37.82,-1.91 -119.53,-2.11 -245.12,-0.781 -62.3,0.711 -139.41,13.089 -121.09,98.992 8.39,39.097 20.31,77.301 35.58,114.609 m 180,76.988 c -14.69,-35.699 -28.47,-71.679 -41.4,-108.089 -8.68,-24.61 -12.97,-52.688 21.71,-54.719 50.9,-2.969 101.92,-3.481 152.82,-1.488 35.47,1.289 60.27,11.718 74.68,43.398 24.11,52.891 48.91,114.488 74.61,184.879 3.09,8.711 2.5,17.109 -2.03,25.242 -11.29,20.66 -43.28,19.68 -64.88,20 -58.71,0.969 -97.11,0.899 -115.12,-0.43 -67.26,-4.89 -77.89,-54.57 -100.39,-108.793"
       style="fill:#2b2b2b;fill-opacity:1;fill-rule:nonzero;stroke:none"
       transform="matrix(0.13333333,0,0,-0.13333333,0,230.66667)" />
    <path
       id="path23"
       d="m 6776.6,291.02 c 1.1,2.3 -0.58,5 -3.2,5 -70.78,-0.321 -141.92,-1.02 -213.28,-1.918 -37.03,-0.512 -68.83,5.199 -95.32,17.308 -36.79,16.602 -28.08,70.781 -16.91,101.211 36.72,98.789 64.3,166.867 82.81,204.289 43.28,87.781 119.61,97.07 218.4,97.969 112.11,1.141 224.69,1.332 337.62,0.633 1.87,0 3.08,-1.922 2.38,-3.602 C 7031.8,566.719 6973.71,421.602 6914.61,276.48 6870.12,167.379 6826.8,95.1211 6707.7,90.3906 c -53.6,-2.0703 -176.22,-2.0703 -367.7,0 -3.59,0.1211 -4.69,1.8008 -3.28,5.1211 l 46.29,113.6683 c 1.09,2.73 3.01,4.019 5.9,4.019 102.3,0.121 204.29,0.321 305.97,0.391 61.02,0 61.41,33.09 81.72,77.43 m 114.69,285.46 2.5,2.309 c 4.1,3.832 1.52,10.699 -4.1,10.82 -47.58,0.7 -95.39,0.7 -143.28,0 -39.22,-0.507 -73.79,6.68 -96.02,-35 -20.08,-37.808 -35.39,-76.328 -45.78,-115.629 -2.81,-10.89 5.27,-21.601 16.48,-21.679 l 198.32,-1.91 c 4.38,-0.082 8.4,2.621 10,6.8 l 57.97,148.59 c 0.9,2.231 2.23,4.098 3.91,5.699"
       style="fill:#2b2b2b;fill-opacity:1;fill-rule:nonzero;stroke:none"
       transform="matrix(0.13333333,0,0,-0.13333333,0,230.66667)" />
  </g>
</svg>
